<svg version="1.1" xmlns="http://www.w3.org/2000/svg" xmlns:xlink="http://www.w3.org/1999/xlink" width="789.571" height="495.571" viewBox="296.10003,169.10003,789.571,495.571"><g fill="#2eafac" fill-rule="nonzero" stroke="none" stroke-width="1" stroke-linecap="round" stroke-linejoin="round" stroke-miterlimit="10" stroke-dasharray="" stroke-dashoffset="0" font-family="none" font-weight="none" font-size="none" text-anchor="none" style="mix-blend-mode: normal"><path d="M296.10003,314c0,-80.02604 64.87392,-144.89997 144.89997,-144.89997c80.02604,0 144.89997,64.87392 144.89997,144.89997c0,80.02604 -64.87392,144.89997 -144.89997,144.89997c-80.02604,0 -144.89997,-64.87392 -144.89997,-144.89997z"></path><path d="M563.72307,361c0,-25.00576 20.27117,-45.27693 45.27693,-45.27693c25.00576,0 45.27693,20.27117 45.27693,45.27693c0,25.00576 -20.27117,45.27693 -45.27693,45.27693c-25.00576,0 -45.27693,-20.27117 -45.27693,-45.27693z"></path><path d="M674.85518,391c0,-17.20081 13.94401,-31.14482 31.14482,-31.14482c17.20081,0 31.14482,13.94401 31.14482,31.14482c0,17.20081 -13.94401,31.14482 -31.14482,31.14482c-17.20081,0 -31.14482,-13.94401 -31.14482,-31.14482z"></path><path d="M754.79785,431c0,-20.54618 16.65597,-37.20215 37.20215,-37.20215c20.54618,0 37.20215,16.65597 37.20215,37.20215c0,20.54618 -16.65597,37.20215 -37.20215,37.20215c-20.54618,0 -37.20215,-16.65597 -37.20215,-37.20215z"></path><path d="M834.72183,492c0,-23.90187 19.3763,-43.27817 43.27817,-43.27817c23.90187,0 43.27817,19.3763 43.27817,43.27817c0,23.90187 -19.3763,43.27817 -43.27817,43.27817c-23.90187,0 -43.27817,-19.3763 -43.27817,-43.27817z"></path><path d="M882.32896,563c0,-56.15136 45.51967,-101.67104 101.67104,-101.67104c56.15136,0 101.67104,45.51967 101.67104,101.67104c0,56.15136 -45.51967,101.67104 -101.67104,101.67104c-56.15136,0 -101.67104,-45.51967 -101.67104,-101.67104z"></path></g><g id="guide" fill="none" fill-rule="nonzero" stroke="none" stroke-width="1" stroke-linecap="round" stroke-linejoin="round" stroke-miterlimit="10" stroke-dasharray="" stroke-dashoffset="0" font-family="sans-serif" font-weight="normal" font-size="12" text-anchor="start" style="mix-blend-mode: normal"></g></svg>